PathFileType	4	(X/Y/Z)	C:/Users/opensim2020/Desktop/walking_exp_matlab/subject01_walking09_straight_04.trc	
DataRate	CameraRate	NumFrames	NumMarkers	Units	OrigDataRate	OrigDataStartFrame	OrigNumFrames	
100.00	100.00	5	43	mm	100.00	4142	292	
Frame#	Time	LFHD			RFHD			LBHD			RBHD			C7			T10			CLAV			STRN			RBAK			LSHO			LUPA			LELB			LFRM			LWRA			LWRB			LFIN			RSHO			RUPA			RELB			RFRM			RWRA			RWRB			RFIN			LASI			RASI			LPSI			RPSI			LTHI			LKNE			LTIB			LANK			LHEE			LTOE			RTHI			RKNE			RTIB			RANK			RHEE			RTOE			*39			*40			*41			*42			
		X1	Y1	Z1	X2	Y2	Z2	X3	Y3	Z3	X4	Y4	Z4	X5	Y5	Z5	X6	Y6	Z6	X7	Y7	Z7	X8	Y8	Z8	X9	Y9	Z9	X10	Y10	Z10	X11	Y11	Z11	X12	Y12	Z12	X13	Y13	Z13	X14	Y14	Z14	X15	Y15	Z15	X16	Y16	Z16	X17	Y17	Z17	X18	Y18	Z18	X19	Y19	Z19	X20	Y20	Z20	X21	Y21	Z21	X22	Y22	Z22	X23	Y23	Z23	X24	Y24	Z24	X25	Y25	Z25	X26	Y26	Z26	X27	Y27	Z27	X28	Y28	Z28	X29	Y29	Z29	X30	Y30	Z30	X31	Y31	Z31	X32	Y32	Z32	X33	Y33	Z33	X34	Y34	Z34	X35	Y35	Z35	X36	Y36	Z36	X37	Y37	Z37	X38	Y38	Z38	X39	Y39	Z39	X40	Y40	Z40	X41	Y41	Z41	X42	Y42	Z42	X43	Y43	Z43	

256	2.550	1481.66345	-564.50415	1655.68555	1368.49744	-580.36072	1658.06323	1472.46631	-442.44318	1631.90356	1352.02930	-455.82898	1634.15613	1424.47498	-375.75656	1433.50806	1407.74915	-339.48087	1137.72888	1430.35474	-517.51404	1362.04211	1437.71716	-557.51184	1207.42395	1337.08582	-324.67691	1238.61023	1587.73438	-446.26233	1392.68298	1668.54822	-407.10941	1208.15894	1668.42419	-394.84885	1058.43103	1694.67395	-429.87735	950.83502	1676.52576	-506.22263	833.98981	1701.26050	-450.72021	830.30170	1713.33899	-499.23181	761.07513	1276.86804	-464.39734	1393.62598	1166.78735	-423.53827	1193.30786	1161.83411	-433.85889	1067.60229	1136.79639	-487.06885	957.54962	1166.42334	-588.50024	860.72449	1123.13855	-551.00714	853.05219	1129.33984	-603.30078	784.06970	1528.46326	-505.15710	934.58069	1310.91248	-518.55103	928.96356	1467.44958	-323.18781	943.02625	1322.89014	-332.60641	944.99768	1610.33203	-550.59656	620.65436	1598.72888	-581.03809	489.49622	1606.83289	-536.06781	307.96716	1562.03748	-526.15106	86.89584	1499.12915	-497.51315	52.00842	1599.48303	-664.05475	56.03650	1270.73853	-449.76941	594.28790	1303.74475	-444.29395	436.87314	1299.61523	-379.33682	271.85425	1358.40479	-333.82956	72.55489	1406.09351	-280.34039	37.63024	1367.96155	-472.96765	33.22124	1390.94897	-573.77991	1692.99512	-3101.91333	1973.14282	1023.54828	-3140.65283	2012.45630	1021.97351			 
257	2.560	1482.34680	-571.88391	1654.54443	1369.15088	-587.60468	1656.96948	1473.31458	-449.75800	1631.44006	1352.40515	-463.19351	1633.79297	1425.15063	-382.10461	1433.02783	1408.30115	-345.59265	1137.24719	1430.89050	-523.65381	1361.37695	1438.08179	-563.58160	1206.75256	1337.56482	-330.73990	1238.20667	1588.34570	-452.43085	1392.10596	1668.87427	-412.75488	1207.48889	1668.51831	-400.28210	1057.90173	1694.78662	-434.38232	950.08105	1676.86609	-509.67905	832.54608	1701.49878	-454.09036	829.35803	1713.69751	-501.78094	759.68597	1277.64783	-470.52631	1393.29883	1167.06836	-429.95041	1193.07764	1161.99780	-440.50110	1067.39795	1136.94238	-494.36740	957.61871	1166.57715	-596.54602	861.61847	1123.47754	-558.68146	853.35962	1129.63989	-611.70520	784.87048	1528.62842	-511.50568	934.08160	1311.05786	-524.40564	928.44525	1467.97437	-329.45071	942.55499	1323.43604	-338.57959	944.51282	1610.98169	-556.39581	619.94702	1598.88293	-587.56647	489.00354	1608.22559	-548.83405	306.50867	1564.73083	-546.92731	84.80907	1501.86475	-519.05139	48.77496	1600.82776	-686.33258	58.22656	1270.83179	-453.52280	594.12030	1303.72217	-446.76160	436.48019	1299.59241	-380.79230	272.02298	1358.25244	-334.19366	72.83245	1406.05542	-280.40506	38.05437	1368.03723	-472.80222	33.19529	1391.62195	-581.40997	1691.99109	-3101.97021	1973.10107	1023.84644	-3140.69019	2012.47363	1021.94189			 
258	2.570	1483.12231	-579.27271	1653.33289	1369.88208	-594.89679	1655.84241	1474.17725	-457.02689	1630.94763	1353.67590	-470.14487	1633.34485	1425.90063	-388.46841	1432.47668	1408.86877	-351.78198	1136.69128	1431.55847	-530.04510	1360.83716	1438.56531	-569.89862	1206.25476	1338.20471	-336.83731	1237.76306	1589.04700	-458.65042	1391.47180	1669.25867	-418.51257	1206.77441	1668.61304	-405.75305	1057.32141	1694.98462	-438.98651	949.29016	1677.27283	-513.37805	831.07855	1701.76648	-457.63623	828.39319	1714.07849	-504.68188	758.32117	1278.25793	-476.44385	1392.78857	1167.43933	-436.22260	1192.79492	1162.16748	-447.08740	1067.11414	1137.15100	-501.61353	957.60706	1166.91516	-604.21747	862.09125	1123.77820	-566.59589	853.92719	1129.90161	-619.80481	785.42993	1528.93042	-518.05988	933.63031	1311.29980	-530.29913	927.90466	1468.61377	-335.74905	942.06604	1324.11780	-344.57208	944.15710	1611.35376	-561.68787	618.97351	1599.05444	-594.04822	488.53525	1609.58765	-561.34778	305.20923	1567.52002	-567.20062	83.18848	1505.02258	-539.69409	46.17259	1602.21216	-707.71582	60.29499	1270.92834	-457.26596	593.75336	1303.69727	-449.26639	436.18616	1299.56824	-382.20737	272.08420	1358.15796	-334.46570	73.14438	1406.12488	-280.46042	38.62528	1368.06091	-472.79614	33.21288	1392.41724	-588.92889	1690.90271	-3102.05737	1972.97974	1024.03638	-3140.63672	2012.57764	1022.10815			 
259	2.580	1483.97180	-586.56824	1652.19946	1370.75403	-602.12280	1654.74280	1475.07837	-464.23471	1630.37817	1354.57678	-477.24133	1632.81091	1426.72107	-394.88004	1431.92163	1409.57141	-357.99072	1136.06885	1432.38354	-536.51813	1360.40479	1439.06189	-576.14954	1205.56946	1338.95325	-342.93555	1237.26477	1589.79321	-465.03159	1390.77734	1669.70129	-424.38104	1205.98792	1668.83032	-411.28046	1056.66785	1695.27258	-443.59387	948.46515	1677.75806	-517.24585	829.70477	1702.08679	-461.41867	827.45148	1714.34741	-507.88541	756.88025	1279.01331	-482.71335	1392.46802	1167.89856	-442.48267	1192.33630	1162.44299	-453.68896	1066.74097	1137.45813	-508.67773	957.45514	1167.32581	-611.75208	862.47095	1124.10254	-574.39807	854.11597	1130.29407	-627.87140	785.91937	1529.22974	-524.70496	933.10724	1311.54346	-536.18842	927.31433	1469.31921	-342.13141	941.46411	1324.84497	-350.53528	943.76141	1611.65051	-566.92438	617.88232	1599.14697	-600.48389	487.91702	1610.95581	-573.53680	304.10959	1570.14795	-586.91168	81.93858	1508.06738	-559.84241	44.24211	1603.22156	-728.71301	62.96362	1271.08154	-461.05576	593.67432	1303.66406	-451.82523	435.91016	1299.56970	-383.76093	272.24115	1358.02771	-334.62814	73.40610	1406.01538	-280.40033	38.87097	1367.99158	-472.94662	33.27199	1393.29114	-596.29352	1689.71106	-3102.05542	1973.12463	1023.53558	-3140.65894	2012.53577	1022.17261			 
260	2.590	1484.90222	-593.72968	1651.11121	1371.65601	-609.27081	1653.65564	1476.06360	-471.36136	1629.71692	1355.53491	-484.29575	1632.25354	1427.63489	-401.33728	1431.30164	1410.36658	-364.25497	1135.44202	1432.98303	-542.74835	1359.56006	1439.59778	-582.50848	1204.86902	1339.80762	-349.06860	1236.72827	1590.66870	-471.45395	1390.08154	1670.31213	-430.40643	1205.22510	1669.15942	-416.99292	1056.03125	1695.67261	-448.45926	947.65790	1678.17981	-521.29315	828.31519	1702.45288	-465.42807	826.48871	1714.75916	-511.37424	755.55048	1279.70483	-488.82349	1391.90503	1168.46680	-448.59976	1191.84094	1162.81079	-460.25967	1066.23560	1137.77893	-515.74469	957.23584	1167.80591	-619.24237	862.63605	1124.46387	-581.95923	854.17871	1130.71582	-635.66180	786.23444	1529.54065	-531.43335	932.41461	1311.76624	-542.19788	926.66638	1470.11426	-348.57782	940.81091	1325.72827	-356.42215	943.33868	1611.99011	-572.88287	617.19067	1599.31311	-606.89099	487.33228	1612.26514	-585.46960	303.13403	1572.66418	-606.04321	81.06407	1511.06714	-579.36646	42.30572	1604.08765	-749.03473	65.85940	1271.21948	-464.85565	593.26776	1303.72766	-454.45593	435.45798	1299.42175	-385.17133	272.24277	1357.97400	-334.81693	73.71977	1405.98572	-280.58539	39.64374	1367.96802	-472.99377	33.21747	1394.22961	-603.64935	1688.62146	-3102.04883	1973.00073	1023.71997	-3140.72559	2012.64136	1022.17017			 
